<?xml version="1.0" encoding="utf-8"?><!-- Uploaded to: SVG Repo, www.svgrepo.com, Generator: SVG Repo Mixer Tools -->
<svg fill="#000000" width="800px" height="800px" viewBox="0 0 24 24" id="danger" data-name="Flat Line" xmlns="http://www.w3.org/2000/svg" class="icon flat-line"><path id="secondary" d="M12.89,3.56l8,16A1,1,0,0,1,20,21H4a1,1,0,0,1-.9-1.45l8-16A1,1,0,0,1,12.89,3.56Z" style="fill: rgb(44, 169, 188); stroke-width: 2;"></path><line id="primary-upstroke" x1="11.95" y1="16.5" x2="12.05" y2="16.5" style="fill: none; stroke: rgb(0, 0, 0); stroke-linecap: round; stroke-linejoin: round; stroke-width: 2.5;"></line><path id="primary" d="M12.89,3.56l8,16A1,1,0,0,1,20,21H4a1,1,0,0,1-.9-1.45l8-16A1,1,0,0,1,12.89,3.56ZM12,12V10" style="fill: none; stroke: rgb(0, 0, 0); stroke-linecap: round; stroke-linejoin: round; stroke-width: 2;"></path></svg>