<svg xmlns="http://www.w3.org/2000/svg" viewBox="0 0 136.22 136.22"><defs><style>.cls-1{fill:#808285;}</style></defs><title>Amir's project title svg</title><g id="Layer_2" data-name="Layer 2"><g id="Layer_2-2" data-name="Layer 2"><path class="cls-1" d="M130.69,64.58a15.89,15.89,0,0,1-.41-3.25c2.89-18.88,3-19-13.66-28-5.72-3.08-10-6.81-12.73-12.9-3.9-8.6-10.5-12.21-17.6-10.92s-10.42,6.15-11.7,12.85C72,36.07,73.46,50.25,69.48,63.82c-1.42,4.84,3,3.41,5.29,3.5,14.18.53,28.4-.33,42.56,1.12,10,1,16,5.68,18.34,14.63,1.92,7.29-1.27,17.61-8.45,21.64-9.64,5.4-16.64,12.52-22.48,22-6.79,11-20,12.17-32.72,4.25,3.67-1.58,6.53.4,9.4.92,7.8,1.44,13.68-.77,17.41-8.08,4.66-9.12,9.59-17.72,20.09-21.92,6.32-2.52,8.66-8.78,7.71-15.55-1-7.2-6.09-10.43-12.78-11.71C100.15,72,86,73.46,72.4,69.48c-4.84-1.42-3.41,3-3.5,5.29-.53,14.18.33,28.4-1.12,42.57-1,10-5.69,16-14.63,18.33-7.3,1.92-17.61-1.27-21.63-8.45-5.41-9.64-12.52-16.64-22-22.48C-1.45,98-2.63,84.72,5.29,72c1.58,3.67-.39,6.53-.92,9.4-1.44,7.8.78,13.68,8.08,17.41,9.12,4.66,17.72,9.59,21.92,20.09,2.53,6.32,8.78,8.66,15.55,7.71,7.2-1,10.44-6.09,11.71-12.78,2.61-13.7,1.13-27.87,5.11-41.45,1.42-4.84-3-3.41-5.28-3.5-14.19-.53-28.41.33-42.57-1.12-10-1-16-5.68-18.34-14.63C-1.37,45.85,1.82,35.54,9,31.52c9.64-5.41,16.64-12.52,22.48-22,6.79-11,20-12.18,32.72-4.26-3.67,1.58-6.53-.39-9.4-.92C47,2.93,41.12,5.14,37.39,12.45,32.73,21.57,27.8,30.17,17.3,34.37,11,36.9,8.64,43.15,9.59,49.92c1,7.2,6.09,10.44,12.79,11.71,13.69,2.61,27.87,1.13,41.44,5.11,4.84,1.42,3.41-3,3.5-5.28.53-14.19-.33-28.41,1.12-42.57,1-10,5.69-16,14.63-18.34,7.3-1.92,17.61,1.27,21.64,8.45,5.4,9.64,12.51,16.64,22,22.48C137.67,38.26,138.85,51.5,130.69,64.58Z"/></g></g></svg>